<svg width="252" height="39" viewBox="0 0 252 39" fill="none" xmlns="http://www.w3.org/2000/svg">
<path d="M0.386364 38V11.8182H9.79545V38H0.386364ZM5.09091 9.09091C3.81818 9.09091 2.72727 8.67045 1.81818 7.82955C0.909091 6.98864 0.454546 5.97727 0.454546 4.79545C0.454546 3.61364 0.909091 2.60227 1.81818 1.76136C2.72727 0.920454 3.81818 0.5 5.09091 0.5C6.375 0.5 7.46591 0.920454 8.36364 1.76136C9.27273 2.60227 9.72727 3.61364 9.72727 4.79545C9.72727 5.97727 9.27273 6.98864 8.36364 7.82955C7.46591 8.67045 6.375 9.09091 5.09091 9.09091ZM26.3986 23.2727V38H16.9895V11.8182H25.9213V16.7955H26.194C26.7622 15.1364 27.7622 13.8352 29.194 12.892C30.6372 11.9489 32.319 11.4773 34.2395 11.4773C36.0918 11.4773 37.6997 11.9034 39.0634 12.7557C40.4384 13.5966 41.5009 14.7557 42.2509 16.233C43.0122 17.7102 43.3872 19.3977 43.3759 21.2955V38H33.9668V23.2727C33.9781 21.9773 33.6486 20.9602 32.9781 20.2216C32.319 19.483 31.3986 19.1136 30.2168 19.1136C29.444 19.1136 28.7679 19.2841 28.1884 19.625C27.6202 19.9545 27.1827 20.4318 26.8759 21.0568C26.569 21.6705 26.4099 22.4091 26.3986 23.2727ZM66.0344 11.8182V18.6364H48.7844V11.8182H66.0344ZM52.1253 5.54545H61.5344V29.5795C61.5344 29.9432 61.5969 30.25 61.7219 30.5C61.8469 30.7386 62.0401 30.9205 62.3014 31.0455C62.5628 31.1591 62.898 31.2159 63.3071 31.2159C63.5912 31.2159 63.9207 31.1818 64.2957 31.1136C64.6821 31.0455 64.9662 30.9886 65.148 30.9432L66.5116 37.5568C66.0912 37.6818 65.4889 37.8352 64.7048 38.017C63.9321 38.1989 63.0116 38.3182 61.9435 38.375C59.7844 38.4886 57.9719 38.267 56.506 37.7102C55.0401 37.142 53.9378 36.25 53.1991 35.0341C52.4605 33.8182 52.1026 32.2955 52.1253 30.4659V5.54545ZM72.2739 38V11.8182H81.4102V16.7955H81.683C82.1602 14.9545 82.9159 13.608 83.95 12.7557C84.9955 11.9034 86.217 11.4773 87.6148 11.4773C88.0239 11.4773 88.4273 11.5114 88.825 11.5795C89.2341 11.6364 89.6261 11.7216 90.0011 11.8352V19.8636C89.5352 19.7045 88.9614 19.5852 88.2795 19.5057C87.5977 19.4261 87.0125 19.3864 86.5239 19.3864C85.6034 19.3864 84.7739 19.5966 84.0352 20.017C83.308 20.4261 82.7341 21.0057 82.3136 21.7557C81.8932 22.4943 81.683 23.3636 81.683 24.3636V38H72.2739ZM106.6 38.4773C103.759 38.4773 101.327 37.9148 99.3045 36.7898C97.2818 35.6534 95.7307 34.0739 94.6511 32.0511C93.5716 30.017 93.0318 27.6591 93.0318 24.9773C93.0318 22.2955 93.5716 19.9432 94.6511 17.9205C95.7307 15.8864 97.2818 14.3068 99.3045 13.1818C101.327 12.0455 103.759 11.4773 106.6 11.4773C109.441 11.4773 111.873 12.0455 113.895 13.1818C115.918 14.3068 117.469 15.8864 118.549 17.9205C119.628 19.9432 120.168 22.2955 120.168 24.9773C120.168 27.6591 119.628 30.017 118.549 32.0511C117.469 34.0739 115.918 35.6534 113.895 36.7898C111.873 37.9148 109.441 38.4773 106.6 38.4773ZM106.668 31.5227C107.464 31.5227 108.151 31.2557 108.731 30.7216C109.31 30.1875 109.759 29.4261 110.077 28.4375C110.395 27.4489 110.555 26.2727 110.555 24.9091C110.555 23.5341 110.395 22.358 110.077 21.3807C109.759 20.392 109.31 19.6307 108.731 19.0966C108.151 18.5625 107.464 18.2955 106.668 18.2955C105.827 18.2955 105.106 18.5625 104.503 19.0966C103.901 19.6307 103.441 20.392 103.123 21.3807C102.805 22.358 102.645 23.5341 102.645 24.9091C102.645 26.2727 102.805 27.4489 103.123 28.4375C103.441 29.4261 103.901 30.1875 104.503 30.7216C105.106 31.2557 105.827 31.5227 106.668 31.5227Z" fill="black"/>
<path d="M135.864 38.3409C134 38.3409 132.284 37.8523 130.716 36.875C129.159 35.8977 127.909 34.4148 126.966 32.4261C126.034 30.4375 125.568 27.9318 125.568 24.9091C125.568 21.75 126.057 19.1818 127.034 17.2045C128.023 15.2273 129.295 13.7784 130.852 12.858C132.42 11.9375 134.068 11.4773 135.795 11.4773C137.091 11.4773 138.227 11.7045 139.205 12.1591C140.182 12.6023 141 13.1989 141.659 13.9489C142.318 14.6875 142.818 15.5 143.159 16.3864H143.295V3.09091H152.705V38H143.364V33.7045H143.159C142.795 34.5909 142.273 35.3864 141.591 36.0909C140.92 36.7841 140.102 37.3352 139.136 37.7443C138.182 38.142 137.091 38.3409 135.864 38.3409ZM139.341 31.1136C140.205 31.1136 140.943 30.8636 141.557 30.3636C142.182 29.8523 142.659 29.1364 142.989 28.2159C143.33 27.2841 143.5 26.1818 143.5 24.9091C143.5 23.6136 143.33 22.5057 142.989 21.5852C142.659 20.6534 142.182 19.9432 141.557 19.4545C140.943 18.9545 140.205 18.7045 139.341 18.7045C138.477 18.7045 137.739 18.9545 137.125 19.4545C136.523 19.9432 136.057 20.6534 135.727 21.5852C135.409 22.5057 135.25 23.6136 135.25 24.9091C135.25 26.2045 135.409 27.3182 135.727 28.25C136.057 29.1705 136.523 29.8807 137.125 30.3807C137.739 30.8693 138.477 31.1136 139.341 31.1136ZM176.701 26.5455V11.8182H186.11V38H177.178V33.0227H176.906C176.337 34.6932 175.343 36 173.923 36.9432C172.502 37.875 170.815 38.3409 168.86 38.3409C167.031 38.3409 165.428 37.9205 164.053 37.0795C162.69 36.2386 161.627 35.0795 160.866 33.6023C160.116 32.125 159.735 30.4318 159.724 28.5227V11.8182H169.133V26.5455C169.144 27.8409 169.474 28.858 170.122 29.5966C170.781 30.3352 171.701 30.7045 172.883 30.7045C173.667 30.7045 174.343 30.5398 174.911 30.2102C175.491 29.8693 175.934 29.392 176.241 28.7784C176.559 28.1534 176.712 27.4091 176.701 26.5455ZM205.909 38.4773C203.068 38.4773 200.637 37.9148 198.614 36.7898C196.591 35.6534 195.04 34.0739 193.961 32.0511C192.881 30.017 192.341 27.6591 192.341 24.9773C192.341 22.2955 192.881 19.9432 193.961 17.9205C195.04 15.8864 196.591 14.3068 198.614 13.1818C200.637 12.0455 203.068 11.4773 205.909 11.4773C208.478 11.4773 210.699 11.9432 212.574 12.875C214.461 13.7955 215.921 15.1023 216.955 16.7955C217.989 18.4773 218.512 20.4545 218.523 22.7273H209.796C209.671 21.3523 209.273 20.3068 208.603 19.5909C207.943 18.8636 207.091 18.5 206.046 18.5C205.228 18.5 204.512 18.7386 203.898 19.2159C203.284 19.6818 202.807 20.392 202.466 21.3466C202.125 22.2898 201.955 23.4773 201.955 24.9091C201.955 26.3409 202.125 27.5341 202.466 28.4886C202.807 29.4318 203.284 30.142 203.898 30.6193C204.512 31.0852 205.228 31.3182 206.046 31.3182C206.739 31.3182 207.353 31.1591 207.887 30.8409C208.421 30.5114 208.853 30.0341 209.182 29.4091C209.523 28.7727 209.728 28 209.796 27.0909H218.523C218.489 29.3977 217.961 31.4091 216.938 33.125C215.915 34.8295 214.466 36.1477 212.591 37.0795C210.728 38.0114 208.5 38.4773 205.909 38.4773ZM233.26 31.7955L233.328 20.6136H234.555L240.896 11.8182H251.464L240.828 25.5227H238.169L233.26 31.7955ZM224.805 38V3.09091H234.214V38H224.805ZM240.964 38L234.964 27.6364L241.101 20.9545L251.737 38H240.964Z" fill="url(#paint0_linear_3_3)"/>
<defs>
<linearGradient id="paint0_linear_3_3" x1="125" y1="-8" x2="125" y2="50" gradientUnits="userSpaceOnUse">
<stop stop-color="#2A67E7"/>
<stop offset="1" stop-color="#2AE7BA"/>
</linearGradient>
</defs>
</svg>
